<?xml version="1.0" standalone="no"?><!DOCTYPE svg PUBLIC "-//W3C//DTD SVG 1.1//EN" "http://www.w3.org/Graphics/SVG/1.1/DTD/svg11.dtd"><svg t="1698813593009" class="icon" viewBox="0 0 1024 1024" version="1.1" xmlns="http://www.w3.org/2000/svg" p-id="2633" xmlns:xlink="http://www.w3.org/1999/xlink" width="200" height="200"><path d="M196 488h630v361H196z" fill="#DDDDDD" p-id="2634"></path><path d="M297.58 472H155l25.94-227.42A40.1 40.1 0 0 1 220.78 209h76.8z" fill="#FF6648" p-id="2635"></path><path d="M297.58 209.03h142.58V472H297.58z" fill="#FFA192" p-id="2636"></path><path d="M297.58 472h142.57v31.71A71.29 71.29 0 0 1 368.86 575a71.29 71.29 0 0 1-71.29-71.29V472h0.01z" fill="#FF7C66" p-id="2637"></path><path d="M154.58 472h142.57v31.71A71.29 71.29 0 0 1 225.86 575a71.29 71.29 0 0 1-71.29-71.29V472h0.01z" fill="#FF4E36" p-id="2638"></path><path d="M582.58 472h142.57v31.71A71.29 71.29 0 0 1 653.86 575a71.29 71.29 0 0 1-71.29-71.29V472z" fill="#FF7C66" p-id="2639"></path><path d="M724.58 472h142.57v31.71A71.29 71.29 0 0 1 795.86 575a71.29 71.29 0 0 1-71.29-71.29V472h0.01zM439.58 472h142.57v31.71A71.29 71.29 0 0 1 510.86 575a71.29 71.29 0 0 1-71.29-71.29V472z" fill="#FF4E36" p-id="2640"></path><path d="M440.15 209.03h142.58V472H440.15z" fill="#FF6648" p-id="2641"></path><path d="M582.73 209.03h142.58V472H582.73z" fill="#FFA192" p-id="2642"></path><path d="M867 472H724.42V209h76.8a40.1 40.1 0 0 1 39.84 35.55z" fill="#FF6648" p-id="2643"></path><path d="M300.83 615h146.78A15.39 15.39 0 0 1 463 630.39V849H285.44V630.39A15.39 15.39 0 0 1 300.83 615zM653 615h73a15 15 0 0 1 15 15v47h-88v-62zM653 693h88v47a15 15 0 0 1-15 15h-73v-62zM638 755h-73a15 15 0 0 1-15-15v-47h88v62zM638 677h-88v-47a15 15 0 0 1 15-15h73v62z" fill="#B2B2B2" p-id="2644"></path><path d="M722.07 849a82 82 0 0 1 162.49-15.75 13.26 13.26 0 0 1-13 15.75zM157.49 849a14.3 14.3 0 0 1-14.05-17 91.25 91.25 0 0 1 179.31 0 14.31 14.31 0 0 1-14.05 17z" fill="#3CB72A" p-id="2645"></path><path d="M650.74 849a7.44 7.44 0 0 1-7.34-8.54 57.49 57.49 0 0 1 113.7 0 7.44 7.44 0 0 1-7.34 8.54z" fill="#55CC40" p-id="2646"></path><path d="M427 742m-13 0a13 13 0 1 0 26 0 13 13 0 1 0-26 0Z" fill="#7A7A7A" p-id="2647"></path></svg>